<svg xmlns="http://www.w3.org/2000/svg" width="24" height="24" fill="none" viewBox="0 0 32 32">
    <path fill="url(#a)" fill-rule="evenodd"
          d="m13.341 12.914.012.024c.353 0 .615-.394.674-.893a37 37 0 0 0-.858.3c-.035.059-.07.12-.11.172-.129.14.104.397.282.397m16.748.33c-.741-2.999-6.542-3.745-13.487-1.96-.248.186-.53.271-.75.306-.577.085-.784.123-.84.496s.93.557 1.593.073c.446-.324.767-1.027 1.164-1.077.513-.06.606 1.29.312 1.955-.295.665-1.286 1.093-1.66.758-.128-.123-.11-.19-.128-.476-.018-.285-.674-.233-.674.202.02.303.006.61-.044.91-.183.954-1.893 1.105-2.336 1.056-.44-.05-.98-.397-.717-.613.603-.475.227-1.587-.645-2.039q-.41.166-.814.342a.46.46 0 0 0 .32.274.92.92 0 0 1 .66.86.9.9 0 0 1-.163.546.92.92 0 0 1-.452.347c-1.14.63-1.913-.537-1.98-.794-.056-.21-.138-.291-.342-.315-5.29 2.69-8.665 6.198-8.03 8.806.823 3.354 7.987 3.893 15.996 1.222 8.009-2.672 13.842-7.522 13.017-10.88z"
          clip-rule="evenodd"/>
    <path fill="#2f80ed" fill-rule="evenodd"
          d="M13.426 10.354a.38.38 0 0 0-.312.367c.011.213.262.362.262.732a1.5 1.5 0 0 1-.318 1.065c-.128.14.105.397.283.397l.012.023c.405 0 .691-.52.685-1.126.05-.732-.239-1.584-.612-1.461zm2.403-.006a.35.35 0 0 0 .123-.146.345.345 0 0 0-.213-.467c-.187.041-.38.044-.566.012a1.5 1.5 0 0 1-.525-.207c-.268-.213-.134-.916-.134-.916.011-.233-.24-.324-.33-.33-.093-.005-.306-.043-.44.307-.067.265-.056.571.017.837.073.265.213.507.406.703a1.56 1.56 0 0 0 1.665.207zm12.635 15.584c-.612-1.814-3.529-5.49-6.834-8.036-.606-.653-.735-1.59-.991-2.488a8.1 8.1 0 0 1-.496-3.007q.236-1.09.612-2.138c.406-1.484.738-2.992.992-4.509a6.3 6.3 0 0 0-.061-2.488c-.277-1.111-4.498 2.126-5.282 2.657a8.3 8.3 0 0 0-2.605-.808 11.9 11.9 0 0 0-5.343.692C6.974 4.78 4.51 2.715 3.676 3.033h.017c-.767.318-.405 1.887-.25 2.835.372 2.249 1.312 4.827 1.557 6.88.883 7.42 1.207 11.801 8.942 16.36.855.434 1.75.784 2.672 1.044 1.898.25 2.604-.66 2.604-1.272a2.85 2.85 0 0 0-.863-1.74c-.624-.698-1.642-1.503-2.115-2.078a29 29 0 0 0 3.678-.68 5 5 0 0 1 1.225-.285c.21.026.403.125.552.274q.782.653 1.49 1.389c.61.688 1.275 1.324 1.986 1.907a2.35 2.35 0 0 0 2.923.053c.248-.22.417-.51.484-.835a1.52 1.52 0 0 0-.11-.956zm-10.38-12.895c-.295.665-1.287 1.094-1.66.758-.128-.122-.11-.19-.128-.475-.018-.286-.674-.233-.674.201.02.304.006.61-.044.91-.183.954-1.893 1.106-2.336 1.056-.44-.05-.98-.397-.717-.612.638-.502.183-1.713-.79-2.11-.35-.133-.485-.183-.613-.055a.46.46 0 0 0-.07.44c.026.074.07.14.128.19q.088.08.204.108a.92.92 0 0 1 .66.86.9.9 0 0 1-.164.546.92.92 0 0 1-.452.347c-1.14.63-1.913-.536-1.98-.793-.068-.257-.173-.324-.496-.324-1.552-.05-1.526-.665-1.68-1.117-.155-.452.239-.665.306-.612.23.198.52.317.822.34.324-.055.295.147.613.558.54.697 1.006-.219.7-.39-.674-.386-.496-1.004-.257-1.138a.4.4 0 0 0 .149-.105.39.39 0 0 0-.009-.508.44.44 0 0 0-.612 0c-.411.38-.155.849-.496.88-.508.039-1.374-.574-1.018-1.796s1.838-1.222 1.838-1.222l-.038.423a1.89 1.89 0 0 0 .743 1.321c.925.525 1.882.269 1.954-.084.044-.219-.256-.476-.735-.447a1.224 1.224 0 0 1-1.312-.88 1.43 1.43 0 0 1 .228-.948c.183-.28.457-.49.778-.592a1.084 1.084 0 0 1 1.324.49c.035.064.044.14.09.195a.446.446 0 0 0 .59.096s.59-.904 1.298-.854c.204.014.4.078.575.183s.32.254.425.43c0 0 1.625-.325 1.893 1.105.312 1.639-.691 2.09-1.268 2.175s-.785.123-.84.496c-.056.374.93.557 1.592.073.446-.324.767-1.026 1.164-1.076.513-.061.606 1.29.312 1.954z"
          clip-rule="evenodd"/>
    <path fill="#fff"
          d="M13.423 15.568q-.113 0-.187-.008c-.341-.038-.773-.254-.843-.49a.23.23 0 0 1 .088-.251c.21-.167.3-.426.257-.738-.073-.516-.496-1.03-1.03-1.249-.353-.137-.443-.157-.53-.075a.4.4 0 0 0-.074.175.4.4 0 0 0 .018.192.4.4 0 0 0 .28.25 1 1 0 0 1 .714.931.99.99 0 0 1-.659.96c-.402.222-.802.25-1.184.087-.522-.224-.849-.75-.895-.93-.056-.21-.117-.268-.426-.268-1.43-.044-1.581-.58-1.7-1.012a3 3 0 0 0-.047-.158c-.108-.315.023-.545.18-.653.076-.053.178-.09.243-.038.218.187.487.3.772.327.269-.041.348.087.467.28.05.081.114.186.207.306.14.18.28.256.411.221.138-.037.237-.198.254-.332.006-.038.009-.134-.058-.172-.443-.254-.51-.584-.51-.758 0-.216.104-.423.25-.508l.009-.006a.3.3 0 0 0 .123-.084.32.32 0 0 0 .067-.28.3.3 0 0 0-.073-.129.37.37 0 0 0-.254-.099.38.38 0 0 0-.257.102c-.19.175-.221.365-.253.534-.03.17-.062.347-.29.367-.3.02-.653-.154-.883-.437-.3-.37-.376-.887-.21-1.453.368-1.26 1.893-1.274 1.908-1.274h.078l-.043.493a1.79 1.79 0 0 0 .709 1.26c.618.35 1.25.344 1.606.184.135-.062.22-.14.237-.222.011-.053-.012-.114-.062-.172-.09-.102-.294-.207-.598-.187a1.3 1.3 0 0 1-1.388-.933v-.012a1.5 1.5 0 0 1 .236-.997 1.54 1.54 0 0 1 .817-.622 1.15 1.15 0 0 1 1.409.525q.024.05.04.094a.3.3 0 0 0 .044.09.37.37 0 0 0 .32.14.4.4 0 0 0 .162-.05c.081-.122.653-.924 1.356-.874a1.35 1.35 0 0 1 1.03.604c.186-.03.848-.097 1.356.247.303.204.495.516.571.925.129.676.05 1.225-.233 1.624-.338.479-.878.604-1.097.636-.589.088-.732.12-.778.435-.012.079.055.137.113.172.254.154.887.18 1.365-.17.178-.128.339-.323.493-.513.228-.28.444-.542.706-.574.131-.015.25.04.341.166.269.362.292 1.336.047 1.89-.207.47-.732.805-1.14.893-.269.058-.493.017-.636-.111-.131-.126-.137-.216-.146-.412q0-.052-.006-.113c-.006-.09-.125-.111-.195-.111-.134.003-.333.09-.333.306.02.303.006.615-.044.922-.175.91-1.6 1.126-2.228 1.126zm-2.13-3.004c.12 0 .263.056.47.134.59.24 1.042.788 1.12 1.362.053.365-.058.674-.312.872-.046.038-.046.07-.038.097.041.143.382.347.718.385.411.046 2.082-.097 2.254-.998.047-.292.062-.595.041-.892 0-.29.245-.45.476-.458.192-.006.335.096.344.245 0 .043.006.081.006.116.008.19.011.228.099.313.105.096.286.122.504.075.374-.078.852-.385 1.039-.808.224-.507.21-1.423-.03-1.747q-.09-.12-.207-.108c-.204.027-.4.266-.61.523-.16.195-.326.4-.521.54-.493.358-1.187.381-1.526.174-.134-.082-.2-.195-.18-.318.064-.431.344-.472.9-.557.2-.03.692-.146.998-.577.26-.368.333-.875.21-1.514-.07-.37-.242-.65-.51-.831-.537-.362-1.292-.22-1.298-.216l-.05.009-.026-.044a1.2 1.2 0 0 0-.942-.575c-.66-.046-1.228.814-1.234.823l-.008.014-.015.009a.5.5 0 0 1-.24.079.56.56 0 0 1-.247-.041.54.54 0 0 1-.201-.152.4.4 0 0 1-.067-.134 1 1 0 0 0-.03-.073 1.005 1.005 0 0 0-1.234-.458 1.4 1.4 0 0 0-.743.563c-.172.266-.248.58-.216.896a1.15 1.15 0 0 0 1.23.823c.307-.021.575.07.721.235.08.09.114.196.094.298-.027.128-.14.245-.318.327-.391.175-1.08.186-1.744-.19l-.01-.006a1.95 1.95 0 0 1-.772-1.37v-.007l.03-.344c-.307.024-1.4.172-1.69 1.167-.151.52-.084.986.184 1.321.23.286.546.4.758.385.103-.009.123-.058.155-.248.03-.172.073-.405.298-.612a.52.52 0 0 1 .711 0 .44.44 0 0 1 .111.411.44.44 0 0 1-.271.318c-.088.052-.172.195-.172.38 0 .142.055.413.434.63.1.054.149.171.132.314-.024.184-.152.4-.36.455-.133.038-.338.02-.562-.271-.1-.126-.163-.233-.216-.318-.12-.196-.149-.24-.327-.21h-.018a1.53 1.53 0 0 1-.85-.35.3.3 0 0 0-.155.11c-.059.077-.117.21-.047.415q.024.08.05.163c.12.423.242.864 1.563.904.356 0 .487.088.566.38.029.116.312.618.813.83q.515.22 1.062-.084l.012-.006a.84.84 0 0 0 .566-.82.85.85 0 0 0-.607-.792.55.55 0 0 1-.38-.345.6.6 0 0 1-.025-.265.6.6 0 0 1 .102-.245l.005-.009a.3.3 0 0 1 .222-.096l.012-.006zm2.06.446h-.044l-.014-.029a.47.47 0 0 1-.321-.256c-.044-.097-.032-.19.032-.257.224-.283.332-.642.3-1.01 0-.2-.076-.326-.148-.446a.7.7 0 0 1-.117-.288.455.455 0 0 1 .367-.444.32.32 0 0 1 .295.062c.271.21.452.857.408 1.475.006.409-.122.785-.338 1.004a.6.6 0 0 1-.42.19zm.146-2.595a.1.1 0 0 0-.05.008h-.009a.34.34 0 0 0-.18.105.3.3 0 0 0-.073.193c.003.067.046.134.093.216.076.125.17.28.17.516.034.397-.085.79-.336 1.108-.012.012-.038.041-.009.105.04.09.152.175.233.175h.044l.012.024a.46.46 0 0 0 .274-.143c.187-.19.3-.537.297-.905.038-.56-.125-1.178-.352-1.356a.2.2 0 0 0-.114-.044zm1.66.157a1.62 1.62 0 0 1-1.045-.376 1.7 1.7 0 0 1-.429-.741 1.8 1.8 0 0 1-.017-.872v-.009c.149-.382.397-.362.502-.353h.014c.146.012.414.14.4.409v.008c-.035.184-.085.694.108.846a1.37 1.37 0 0 0 1.03.18h.034a.41.41 0 0 1 .289.336.43.43 0 0 1-.03.228.4.4 0 0 1-.148.178l-.009.006c-.221.105-.46.157-.703.157zm-1.351-1.951a1.6 1.6 0 0 0 .017.793c.068.254.202.484.388.67.213.179.479.293.762.328.28.035.563-.012.82-.132a.3.3 0 0 0 .092-.11c.02-.047.027-.1.02-.15a.3.3 0 0 0-.06-.136.25.25 0 0 0-.108-.076 1.5 1.5 0 0 1-1.126-.207c-.295-.234-.187-.89-.17-.986.007-.187-.22-.245-.262-.248h-.017c-.09-.009-.242-.02-.35.254z"/>
    <defs>
        <linearGradient id="a" x1="5.668" x2="25.466" y1="28.02" y2="8.166" gradientUnits="userSpaceOnUse">
            <stop stop-color="#8fc0ff"/>
            <stop offset=".98" stop-color="#eff6ff"/>
        </linearGradient>
    </defs>
</svg>